<mxfile host="app.diagrams.net" modified="2024-01-12T04:47:00.495Z" agent="Mozilla/5.0 (Windows NT 10.0; Win64; x64) AppleWebKit/537.36 (KHTML, like Gecko) Chrome/120.0.0.0 Safari/537.36 Edg/120.0.0.0" etag="MAQymx0V5V1m3pT9iZ8b" version="22.1.18" type="github">
  <diagram name="第 1 页" id="WLKe82YckZ-AthvR6e3o">
    <mxGraphModel dx="1173" dy="600" grid="1" gridSize="10" guides="1" tooltips="1" connect="1" arrows="1" fold="1" page="1" pageScale="1" pageWidth="827" pageHeight="1169" math="0" shadow="0">
      <root>
        <mxCell id="0" />
        <mxCell id="1" parent="0" />
        <mxCell id="wGgZtADMz8uqcrAGJYZ0-4" style="edgeStyle=orthogonalEdgeStyle;rounded=0;orthogonalLoop=1;jettySize=auto;html=1;entryX=0;entryY=0.5;entryDx=0;entryDy=0;" parent="1" source="-nO4xTUv9DtAdoL6QTUD-2" target="-nO4xTUv9DtAdoL6QTUD-11" edge="1">
          <mxGeometry relative="1" as="geometry" />
        </mxCell>
        <mxCell id="-nO4xTUv9DtAdoL6QTUD-2" value="未初始化" style="rounded=1;whiteSpace=wrap;html=1;" parent="1" vertex="1">
          <mxGeometry x="190" y="270" width="120" height="60" as="geometry" />
        </mxCell>
        <mxCell id="-nO4xTUv9DtAdoL6QTUD-10" style="edgeStyle=orthogonalEdgeStyle;rounded=0;orthogonalLoop=1;jettySize=auto;html=1;" parent="1" source="-nO4xTUv9DtAdoL6QTUD-5" target="-nO4xTUv9DtAdoL6QTUD-2" edge="1">
          <mxGeometry relative="1" as="geometry" />
        </mxCell>
        <mxCell id="-nO4xTUv9DtAdoL6QTUD-5" value="" style="ellipse;html=1;shape=startState;fillColor=#000000;strokeColor=#ff0000;" parent="1" vertex="1">
          <mxGeometry x="50" y="285" width="30" height="30" as="geometry" />
        </mxCell>
        <mxCell id="-nO4xTUv9DtAdoL6QTUD-9" value="新建投资产品" style="text;html=1;strokeColor=none;fillColor=none;align=center;verticalAlign=middle;whiteSpace=wrap;rounded=0;" parent="1" vertex="1">
          <mxGeometry x="70" y="275" width="130" height="30" as="geometry" />
        </mxCell>
        <mxCell id="nL0MEKreldydN8tAXYwr-2" style="edgeStyle=orthogonalEdgeStyle;rounded=0;orthogonalLoop=1;jettySize=auto;html=1;" parent="1" source="-nO4xTUv9DtAdoL6QTUD-11" target="nL0MEKreldydN8tAXYwr-1" edge="1">
          <mxGeometry relative="1" as="geometry" />
        </mxCell>
        <mxCell id="KUIbtYuFDfmTLpgD2xUS-5" style="edgeStyle=orthogonalEdgeStyle;rounded=0;orthogonalLoop=1;jettySize=auto;html=1;entryX=0;entryY=0.5;entryDx=0;entryDy=0;" edge="1" parent="1" source="-nO4xTUv9DtAdoL6QTUD-11" target="KUIbtYuFDfmTLpgD2xUS-4">
          <mxGeometry relative="1" as="geometry">
            <Array as="points">
              <mxPoint x="470" y="400" />
            </Array>
          </mxGeometry>
        </mxCell>
        <mxCell id="-nO4xTUv9DtAdoL6QTUD-11" value="成功创建" style="rounded=1;whiteSpace=wrap;html=1;" parent="1" vertex="1">
          <mxGeometry x="410" y="270" width="120" height="60" as="geometry" />
        </mxCell>
        <mxCell id="-nO4xTUv9DtAdoL6QTUD-13" value="拉取市场信息" style="text;html=1;align=center;verticalAlign=middle;resizable=0;points=[];autosize=1;strokeColor=none;fillColor=none;" parent="1" vertex="1">
          <mxGeometry x="310" y="270" width="100" height="30" as="geometry" />
        </mxCell>
        <mxCell id="KUIbtYuFDfmTLpgD2xUS-3" style="edgeStyle=orthogonalEdgeStyle;rounded=0;orthogonalLoop=1;jettySize=auto;html=1;entryX=0;entryY=0.5;entryDx=0;entryDy=0;" edge="1" parent="1" source="-nO4xTUv9DtAdoL6QTUD-17" target="l6yJgwb1NW9B_2ungp-H-36">
          <mxGeometry relative="1" as="geometry" />
        </mxCell>
        <mxCell id="-nO4xTUv9DtAdoL6QTUD-17" value="已结束" style="rounded=1;whiteSpace=wrap;html=1;" parent="1" vertex="1">
          <mxGeometry x="890" y="270" width="120" height="60" as="geometry" />
        </mxCell>
        <mxCell id="-nO4xTUv9DtAdoL6QTUD-20" value="用户选择产品" style="text;html=1;strokeColor=none;fillColor=none;align=center;verticalAlign=middle;whiteSpace=wrap;rounded=0;" parent="1" vertex="1">
          <mxGeometry x="524" y="273" width="130" height="30" as="geometry" />
        </mxCell>
        <mxCell id="l6yJgwb1NW9B_2ungp-H-36" value="" style="ellipse;html=1;shape=endState;fillColor=#000000;strokeColor=#ff0000;" parent="1" vertex="1">
          <mxGeometry x="1100" y="285" width="30" height="30" as="geometry" />
        </mxCell>
        <mxCell id="nL0MEKreldydN8tAXYwr-1" value="已选中" style="rounded=1;whiteSpace=wrap;html=1;" parent="1" vertex="1">
          <mxGeometry x="654" y="270" width="120" height="60" as="geometry" />
        </mxCell>
        <mxCell id="nL0MEKreldydN8tAXYwr-3" style="edgeStyle=orthogonalEdgeStyle;rounded=0;orthogonalLoop=1;jettySize=auto;html=1;entryX=0.04;entryY=0.494;entryDx=0;entryDy=0;entryPerimeter=0;" parent="1" source="nL0MEKreldydN8tAXYwr-1" target="-nO4xTUv9DtAdoL6QTUD-17" edge="1">
          <mxGeometry relative="1" as="geometry" />
        </mxCell>
        <mxCell id="nL0MEKreldydN8tAXYwr-4" value="记录投资信息" style="text;html=1;align=center;verticalAlign=middle;resizable=0;points=[];autosize=1;strokeColor=none;fillColor=none;" parent="1" vertex="1">
          <mxGeometry x="782" y="271" width="100" height="30" as="geometry" />
        </mxCell>
        <mxCell id="KUIbtYuFDfmTLpgD2xUS-8" style="edgeStyle=orthogonalEdgeStyle;rounded=0;orthogonalLoop=1;jettySize=auto;html=1;entryX=0.5;entryY=1;entryDx=0;entryDy=0;" edge="1" parent="1" source="KUIbtYuFDfmTLpgD2xUS-4" target="l6yJgwb1NW9B_2ungp-H-36">
          <mxGeometry relative="1" as="geometry" />
        </mxCell>
        <mxCell id="KUIbtYuFDfmTLpgD2xUS-4" value="未选中" style="rounded=1;whiteSpace=wrap;html=1;" vertex="1" parent="1">
          <mxGeometry x="654" y="370" width="120" height="60" as="geometry" />
        </mxCell>
        <mxCell id="KUIbtYuFDfmTLpgD2xUS-6" value="用户未选择产品" style="text;html=1;strokeColor=none;fillColor=none;align=center;verticalAlign=middle;whiteSpace=wrap;rounded=0;" vertex="1" parent="1">
          <mxGeometry x="500" y="371" width="130" height="30" as="geometry" />
        </mxCell>
      </root>
    </mxGraphModel>
  </diagram>
</mxfile>
